<?xml version="1.0" encoding="UTF-8" standalone="no"?>
<svg
   xmlns:dc="http://purl.org/dc/elements/1.1/"
   xmlns:cc="http://creativecommons.org/ns#"
   xmlns:rdf="http://www.w3.org/1999/02/22-rdf-syntax-ns#"
   xmlns:svg="http://www.w3.org/2000/svg"
   xmlns="http://www.w3.org/2000/svg"
   xmlns:sodipodi="http://sodipodi.sourceforge.net/DTD/sodipodi-0.dtd"
   xmlns:inkscape="http://www.inkscape.org/namespaces/inkscape"
   sodipodi:docname="Icons.svg"
   inkscape:version="1.0 (4035a4fb49, 2020-05-01)"
   id="svg8"
   version="1.1"
   viewBox="0 0 210 297"
   height="297mm"
   width="210mm">
  <defs
     id="defs2" />
  <sodipodi:namedview
     inkscape:snap-global="true"
     inkscape:guide-bbox="true"
     showguides="true"
     inkscape:snap-bbox-midpoints="true"
     inkscape:snap-bbox-edge-midpoints="true"
     inkscape:bbox-nodes="true"
     inkscape:bbox-paths="true"
     inkscape:snap-bbox="true"
     inkscape:snap-intersection-paths="true"
     inkscape:snap-smooth-nodes="true"
     inkscape:snap-midpoints="true"
     inkscape:snap-object-midpoints="true"
     inkscape:object-paths="true"
     inkscape:window-maximized="1"
     inkscape:window-y="-8"
     inkscape:window-x="-8"
     inkscape:window-height="1057"
     inkscape:window-width="1920"
     showborder="false"
     showgrid="false"
     inkscape:document-rotation="0"
     inkscape:current-layer="layer1"
     inkscape:document-units="mm"
     inkscape:cy="181.3647"
     inkscape:cx="558.93738"
     inkscape:zoom="0.28181801"
     inkscape:pageshadow="2"
     inkscape:pageopacity="0.0"
     borderopacity="1.0"
     bordercolor="#666666"
     pagecolor="#ffffff"
     id="base">
    <sodipodi:guide
       id="guide844"
       orientation="0,-1"
       position="-112.63691,343.1131" />
    <sodipodi:guide
       id="guide846"
       orientation="0,-1"
       position="-112.63691,79.724444" />
  </sodipodi:namedview>
  <metadata
     id="metadata5">
    <rdf:RDF>
      <cc:Work
         rdf:about="">
        <dc:format>image/svg+xml</dc:format>
        <dc:type
           rdf:resource="http://purl.org/dc/dcmitype/StillImage" />
        <dc:title></dc:title>
      </cc:Work>
    </rdf:RDF>
  </metadata>
  <g
     id="layer1"
     inkscape:groupmode="layer"
     inkscape:label="Ebene 1">
    <rect
       y="-64.230003"
       x="-236.02612"
       height="300"
       width="800"
       id="rect833"
       style="fill:#ac9393;stroke:none;stroke-width:0.264583" />
    <g
       inkscape:export-ydpi="96"
       inkscape:export-xdpi="96"
       inkscape:export-filename="C:\Übungsprojekte\VortragErrorHandling\PicturesAndGraphics\lupe.png"
       id="g948">
      <path
         id="path838"
         style="fill:#333333;stroke:none;stroke-width:0.724637"
         d="M -425.71484 -174.28516 A 285.71429 285.71429 0 0 0 -711.42773 111.42773 A 285.71429 285.71429 0 0 0 -425.71484 397.14258 A 285.71429 285.71429 0 0 0 -140 111.42773 A 285.71429 285.71429 0 0 0 -425.71484 -174.28516 z M -425.9375 -120 A 231.42857 231.42857 0 0 1 -425.71484 -120 A 231.42857 231.42857 0 0 1 -194.28516 111.42773 A 231.42857 231.42857 0 0 1 -425.71484 342.85742 A 231.42857 231.42857 0 0 1 -657.14258 111.42773 A 231.42857 231.42857 0 0 1 -425.9375 -120 z "
         transform="scale(0.26458333)" />
      <rect
         style="fill:#333333;stroke:none;stroke-width:0.294;stroke-miterlimit:4;stroke-dasharray:none"
         id="rect842"
         width="126.56129"
         height="14.363092"
         x="90.714272"
         y="105.45536"
         transform="rotate(90)"
         ry="7.1815462" />
    </g>
    <text
       inkscape:export-ydpi="96"
       inkscape:export-xdpi="96"
       inkscape:export-filename="C:\Übungsprojekte\VortragErrorHandling\PicturesAndGraphics\info.png"
       transform="scale(1.0917095,0.91599458)"
       id="text857"
       y="237.2018"
       x="5.4026375"
       style="font-style:normal;font-variant:normal;font-weight:normal;font-stretch:normal;font-size:378.464px;line-height:1.25;font-family:sans-serif;-inkscape-font-specification:'sans-serif, Normal';font-variant-ligatures:normal;font-variant-caps:normal;font-variant-numeric:normal;font-variant-east-asian:normal;letter-spacing:0px;word-spacing:0px;fill:#333333;fill-opacity:1;stroke:none;stroke-width:1.97116"
       xml:space="preserve"><tspan
         style="font-style:normal;font-variant:normal;font-weight:normal;font-stretch:normal;font-size:378.464px;font-family:sans-serif;-inkscape-font-specification:'sans-serif, Normal';font-variant-ligatures:normal;font-variant-caps:normal;font-variant-numeric:normal;font-variant-east-asian:normal;fill:#333333;stroke-width:1.97116"
         y="237.2018"
         x="5.4026375"
         id="tspan855"
         sodipodi:role="line">i</tspan></text>
    <g
       inkscape:export-ydpi="96"
       inkscape:export-xdpi="96"
       inkscape:export-filename="C:\Übungsprojekte\VortragErrorHandling\PicturesAndGraphics\leak.png"
       id="g968">
      <path
         id="rect859"
         style="fill:#333333;stroke:none;stroke-width:0.371055;stroke-miterlimit:4;stroke-dasharray:none"
         d="M 382.55564,52.590431 V 195.75263 c 0,11.92345 10.60526,21.52293 23.7783,21.52293 h 133.86161 c 13.17308,0 23.77833,-9.59948 23.77833,-21.52293 V 52.590431 H 548.12165 V 181.89187 c 0,9.83974 -8.75163,17.76143 -19.62263,17.76143 H 418.0305 c -10.87099,0 -19.62266,-7.92169 -19.62266,-17.76143 V 52.590431 Z" />
      <rect
         style="opacity:1;fill:#333333;stroke:none;stroke-width:0.132273;stroke-miterlimit:4;stroke-dasharray:none"
         id="rect863"
         width="130.3392"
         height="35.671104"
         x="408.09509"
         y="57.613335"
         ry="8.8136683" />
      <rect
         y="106.52919"
         x="408.09509"
         height="35.671104"
         width="130.3392"
         id="rect871"
         style="opacity:1;fill:#333333;stroke:none;stroke-width:0.132273;stroke-miterlimit:4;stroke-dasharray:none"
         ry="8.8136683" />
      <rect
         style="opacity:1;fill:#333333;stroke:none;stroke-width:0.132273;stroke-miterlimit:4;stroke-dasharray:none"
         id="rect873"
         width="130.3392"
         height="35.671104"
         x="408.09509"
         y="155.44504"
         ry="9.5481396" />
      <rect
         ry="8.8136673"
         y="58.348755"
         x="393.18268"
         height="35.671104"
         width="130.3392"
         id="rect897"
         style="opacity:1;fill:#333333;stroke:none;stroke-width:0.132273;stroke-miterlimit:4;stroke-dasharray:none"
         transform="rotate(-5.5602036)" />
      <rect
         transform="rotate(-15.546045)"
         style="opacity:1;fill:#333333;stroke:none;stroke-width:0.132273;stroke-miterlimit:4;stroke-dasharray:none"
         id="rect899"
         width="130.3392"
         height="35.671104"
         x="356.21841"
         y="85.379044"
         ry="8.8136673" />
    </g>
    <g
       inkscape:export-ydpi="96"
       inkscape:export-xdpi="96"
       inkscape:export-filename="C:\Übungsprojekte\VortragErrorHandling\PicturesAndGraphics\proc.png"
       id="g960">
      <path
         id="path909"
         style="opacity:1;fill:#333333;fill-opacity:1;stroke:none;stroke-width:0.303551;stroke-miterlimit:4;stroke-dasharray:none"
         inkscape:transform-center-x="-2.3284686"
         inkscape:transform-center-y="5.1941003"
         d="m 189.23047,-46.113099 -11.06283,15.562771 a 64.434093,64.434093 0 0 0 -7.95335,1.440196 l -15.8167,-10.698184 a 79.64293,79.64293 0 0 0 -22.47609,14.463534 l 3.18229,18.8267439 a 64.434093,64.434093 0 0 0 -4.60532,6.64218959 l -18.7486,3.61973041 a 79.64293,79.64293 0 0 0 -5.66608,26.1194811 l 15.56278,11.062822 a 64.434093,64.434093 0 0 0 1.4402,7.953347 l -10.6976,15.816721 a 79.64293,79.64293 0 0 0 14.46234,22.476071 l 18.82793,-3.182287 a 64.434093,64.434093 0 0 0 6.6416,4.605315 l 3.61973,18.748608 a 79.64293,79.64293 0 0 0 26.12008,5.66608 l 11.06223,-15.562782 a 64.434093,64.434093 0 0 0 7.95334,-1.440198 l 15.81672,10.69759 a 79.64293,79.64293 0 0 0 22.47607,-14.462933 l -3.18229,-18.827335 a 64.434093,64.434093 0 0 0 4.60532,-6.641597 l 18.7486,-3.619741 a 79.64293,79.64293 0 0 0 5.66608,-26.120065 l -15.56278,-11.06223 a 64.434093,64.434093 0 0 0 -1.44018,-7.953345 L 258.90215,2.2006893 A 79.64293,79.64293 0 0 0 244.4386,-20.275384 l -18.82673,3.182285 a 64.434093,64.434093 0 0 0 -6.6422,-4.605314 l -3.61972,-18.748609 a 79.64293,79.64293 0 0 0 -26.11948,-5.666077 z m -3.58541,37.6138285 a 41.947645,41.947645 0 0 1 41.94804,41.9474415 41.947645,41.947645 0 0 1 -41.94804,41.94803 41.947645,41.947645 0 0 1 -41.94743,-41.94803 41.947645,41.947645 0 0 1 41.94743,-41.9474415 z" />
      <path
         d="m 298.60706,58.152433 -11.06283,15.562762 a 64.434093,64.434093 0 0 0 -7.95335,1.440198 l -15.8167,-10.698177 a 79.64293,79.64293 0 0 0 -22.47609,14.463536 l 3.18229,18.826734 a 64.434093,64.434093 0 0 0 -4.60532,6.642194 l -18.7486,3.61973 a 79.64293,79.64293 0 0 0 -5.66608,26.11948 l 15.56278,11.06283 a 64.434093,64.434093 0 0 0 1.44019,7.95334 l -10.69759,15.81672 a 79.64293,79.64293 0 0 0 14.46234,22.47607 l 18.82793,-3.18228 a 64.434093,64.434093 0 0 0 6.6416,4.60531 l 3.61973,18.74861 a 79.64293,79.64293 0 0 0 26.12007,5.66607 l 11.06223,-15.56277 a 64.434093,64.434093 0 0 0 7.95335,-1.4402 l 15.81672,10.69759 a 79.64293,79.64293 0 0 0 22.47607,-14.46293 l -3.18229,-18.82734 a 64.434093,64.434093 0 0 0 4.60532,-6.6416 l 18.7486,-3.61974 a 79.64293,79.64293 0 0 0 5.66608,-26.12006 l -15.56278,-11.06223 a 64.434093,64.434093 0 0 0 -1.44018,-7.95334 l 10.69819,-15.81672 A 79.64293,79.64293 0 0 0 353.81519,83.990145 l -18.82673,3.182286 a 64.434093,64.434093 0 0 0 -6.6422,-4.605315 l -3.61973,-18.748605 a 79.64293,79.64293 0 0 0 -26.11947,-5.666078 z m -3.58541,37.613819 a 41.947645,41.947645 0 0 1 41.94804,41.947458 41.947645,41.947645 0 0 1 -41.94804,41.94802 41.947645,41.947645 0 0 1 -41.94744,-41.94802 41.947645,41.947645 0 0 1 41.94744,-41.947458 z"
         inkscape:transform-center-y="5.1941003"
         inkscape:transform-center-x="-2.3284686"
         style="opacity:1;fill:#333333;fill-opacity:1;stroke:none;stroke-width:0.303551;stroke-miterlimit:4;stroke-dasharray:none"
         id="path940" />
    </g>
  </g>
</svg>
